<mxfile host="app.diagrams.net" agent="Mozilla/5.0 (Macintosh; Intel Mac OS X 10_15_7) AppleWebKit/537.36 (KHTML, like Gecko) Chrome/130.0.0.0 Safari/537.36" version="24.8.3" pages="2">
  <diagram name="Page-1" id="o_SnRa3BfgBSXgAwJ0Ug">
    <mxGraphModel grid="1" page="1" gridSize="10" guides="1" tooltips="1" connect="1" arrows="1" fold="1" pageScale="1" pageWidth="850" pageHeight="1100" math="0" shadow="0">
      <root>
        <mxCell id="0" />
        <mxCell id="1" parent="0" />
        <mxCell id="yWzHGXZPGEPwO44Kcscn-1" value="&lt;div&gt;&amp;lt;&amp;lt;repository&amp;gt;&amp;gt;&lt;br&gt;&lt;/div&gt;Git Repository" style="swimlane;fontStyle=0;childLayout=stackLayout;horizontal=1;startSize=30;horizontalStack=0;resizeParent=1;resizeParentMax=0;resizeLast=0;collapsible=1;marginBottom=0;whiteSpace=wrap;html=1;" vertex="1" parent="1">
          <mxGeometry x="335" y="120" width="210" height="120" as="geometry" />
        </mxCell>
        <mxCell id="yWzHGXZPGEPwO44Kcscn-2" value="experiments" style="text;strokeColor=none;fillColor=none;align=left;verticalAlign=middle;spacingLeft=4;spacingRight=4;overflow=hidden;points=[[0,0.5],[1,0.5]];portConstraint=eastwest;rotatable=0;whiteSpace=wrap;html=1;" vertex="1" parent="yWzHGXZPGEPwO44Kcscn-1">
          <mxGeometry y="30" width="210" height="30" as="geometry" />
        </mxCell>
        <mxCell id="Baf63l5pZQIeTxcIQ0In-1" value="&amp;lt;git operation&amp;gt;()" style="text;strokeColor=none;fillColor=none;align=left;verticalAlign=middle;spacingLeft=4;spacingRight=4;overflow=hidden;points=[[0,0.5],[1,0.5]];portConstraint=eastwest;rotatable=0;whiteSpace=wrap;html=1;" vertex="1" parent="yWzHGXZPGEPwO44Kcscn-1">
          <mxGeometry y="60" width="210" height="30" as="geometry" />
        </mxCell>
        <mxCell id="Baf63l5pZQIeTxcIQ0In-6" value="getCICDWebHook(): URI" style="text;strokeColor=none;fillColor=none;align=left;verticalAlign=middle;spacingLeft=4;spacingRight=4;overflow=hidden;points=[[0,0.5],[1,0.5]];portConstraint=eastwest;rotatable=0;whiteSpace=wrap;html=1;" vertex="1" parent="yWzHGXZPGEPwO44Kcscn-1">
          <mxGeometry y="90" width="210" height="30" as="geometry" />
        </mxCell>
        <mxCell id="yWzHGXZPGEPwO44Kcscn-11" value="" style="rounded=1;whiteSpace=wrap;html=1;" vertex="1" parent="1">
          <mxGeometry x="40" y="260" width="770" height="630" as="geometry" />
        </mxCell>
        <mxCell id="Baf63l5pZQIeTxcIQ0In-10" style="edgeStyle=orthogonalEdgeStyle;rounded=0;orthogonalLoop=1;jettySize=auto;html=1;entryX=0;entryY=0.5;entryDx=0;entryDy=0;endArrow=diamondThin;endFill=1;" edge="1" parent="1" source="yWzHGXZPGEPwO44Kcscn-21" target="yWzHGXZPGEPwO44Kcscn-44">
          <mxGeometry relative="1" as="geometry" />
        </mxCell>
        <mxCell id="Baf63l5pZQIeTxcIQ0In-21" value="n" style="edgeLabel;html=1;align=center;verticalAlign=middle;resizable=0;points=[];" connectable="0" vertex="1" parent="Baf63l5pZQIeTxcIQ0In-10">
          <mxGeometry x="-0.8431" y="2" relative="1" as="geometry">
            <mxPoint as="offset" />
          </mxGeometry>
        </mxCell>
        <mxCell id="Baf63l5pZQIeTxcIQ0In-22" value="1" style="edgeLabel;html=1;align=center;verticalAlign=middle;resizable=0;points=[];" connectable="0" vertex="1" parent="Baf63l5pZQIeTxcIQ0In-10">
          <mxGeometry x="0.8353" y="2" relative="1" as="geometry">
            <mxPoint as="offset" />
          </mxGeometry>
        </mxCell>
        <mxCell id="uzgHoUzOkEo5gr_IbQHi-4" style="edgeStyle=orthogonalEdgeStyle;rounded=0;orthogonalLoop=1;jettySize=auto;html=1;entryX=0.5;entryY=0;entryDx=0;entryDy=0;endArrow=none;endFill=0;" edge="1" parent="1" source="yWzHGXZPGEPwO44Kcscn-21" target="S8eGnjiq8VAXE1MzdPop-6">
          <mxGeometry relative="1" as="geometry" />
        </mxCell>
        <mxCell id="yWzHGXZPGEPwO44Kcscn-21" value="Stage" style="swimlane;fontStyle=0;childLayout=stackLayout;horizontal=1;startSize=30;horizontalStack=0;resizeParent=1;resizeParentMax=0;resizeLast=0;collapsible=1;marginBottom=0;whiteSpace=wrap;html=1;" vertex="1" parent="1">
          <mxGeometry x="50" y="620" width="140" height="60" as="geometry" />
        </mxCell>
        <mxCell id="yWzHGXZPGEPwO44Kcscn-22" value="contents" style="text;strokeColor=none;fillColor=none;align=left;verticalAlign=middle;spacingLeft=4;spacingRight=4;overflow=hidden;points=[[0,0.5],[1,0.5]];portConstraint=eastwest;rotatable=0;whiteSpace=wrap;html=1;" vertex="1" parent="yWzHGXZPGEPwO44Kcscn-21">
          <mxGeometry y="30" width="140" height="30" as="geometry" />
        </mxCell>
        <mxCell id="Baf63l5pZQIeTxcIQ0In-11" style="edgeStyle=orthogonalEdgeStyle;rounded=0;orthogonalLoop=1;jettySize=auto;html=1;entryX=1;entryY=0.5;entryDx=0;entryDy=0;endArrow=diamond;endFill=1;" edge="1" parent="1" source="yWzHGXZPGEPwO44Kcscn-25" target="yWzHGXZPGEPwO44Kcscn-45">
          <mxGeometry relative="1" as="geometry" />
        </mxCell>
        <mxCell id="Baf63l5pZQIeTxcIQ0In-19" value="n" style="edgeLabel;html=1;align=center;verticalAlign=middle;resizable=0;points=[];" connectable="0" vertex="1" parent="Baf63l5pZQIeTxcIQ0In-11">
          <mxGeometry x="-0.8341" y="-2" relative="1" as="geometry">
            <mxPoint as="offset" />
          </mxGeometry>
        </mxCell>
        <mxCell id="Baf63l5pZQIeTxcIQ0In-20" value="1" style="edgeLabel;html=1;align=center;verticalAlign=middle;resizable=0;points=[];" connectable="0" vertex="1" parent="Baf63l5pZQIeTxcIQ0In-11">
          <mxGeometry x="0.8244" y="1" relative="1" as="geometry">
            <mxPoint as="offset" />
          </mxGeometry>
        </mxCell>
        <mxCell id="yWzHGXZPGEPwO44Kcscn-25" value="Resource" style="swimlane;fontStyle=0;childLayout=stackLayout;horizontal=1;startSize=30;horizontalStack=0;resizeParent=1;resizeParentMax=0;resizeLast=0;collapsible=1;marginBottom=0;whiteSpace=wrap;html=1;" vertex="1" parent="1">
          <mxGeometry x="370" y="620" width="140" height="60" as="geometry" />
        </mxCell>
        <mxCell id="yWzHGXZPGEPwO44Kcscn-26" value="contents" style="text;strokeColor=none;fillColor=none;align=left;verticalAlign=middle;spacingLeft=4;spacingRight=4;overflow=hidden;points=[[0,0.5],[1,0.5]];portConstraint=eastwest;rotatable=0;whiteSpace=wrap;html=1;" vertex="1" parent="yWzHGXZPGEPwO44Kcscn-25">
          <mxGeometry y="30" width="140" height="30" as="geometry" />
        </mxCell>
        <mxCell id="yWzHGXZPGEPwO44Kcscn-30" value="Env Variable" style="rounded=0;whiteSpace=wrap;html=1;align=center;verticalAlign=top;" vertex="1" parent="1">
          <mxGeometry x="230" y="620" width="120" height="60" as="geometry" />
        </mxCell>
        <mxCell id="Baf63l5pZQIeTxcIQ0In-25" style="edgeStyle=orthogonalEdgeStyle;rounded=0;orthogonalLoop=1;jettySize=auto;html=1;entryX=1;entryY=0.5;entryDx=0;entryDy=0;endArrow=diamondThin;endFill=1;" edge="1" parent="1" source="yWzHGXZPGEPwO44Kcscn-31" target="yWzHGXZPGEPwO44Kcscn-44">
          <mxGeometry relative="1" as="geometry" />
        </mxCell>
        <mxCell id="Baf63l5pZQIeTxcIQ0In-26" value="1" style="edgeLabel;html=1;align=center;verticalAlign=middle;resizable=0;points=[];" connectable="0" vertex="1" parent="Baf63l5pZQIeTxcIQ0In-25">
          <mxGeometry x="-0.8025" y="-3" relative="1" as="geometry">
            <mxPoint as="offset" />
          </mxGeometry>
        </mxCell>
        <mxCell id="Baf63l5pZQIeTxcIQ0In-27" value="n" style="edgeLabel;html=1;align=center;verticalAlign=middle;resizable=0;points=[];" connectable="0" vertex="1" parent="Baf63l5pZQIeTxcIQ0In-25">
          <mxGeometry x="0.8361" y="-3" relative="1" as="geometry">
            <mxPoint as="offset" />
          </mxGeometry>
        </mxCell>
        <mxCell id="yWzHGXZPGEPwO44Kcscn-31" value="&lt;div&gt;&amp;nbsp;&lt;span style=&quot;background-color: initial;&quot;&gt;&amp;lt;&amp;lt;repository&amp;gt;&amp;gt;&lt;/span&gt;&lt;/div&gt;Monitoring Service Repository&lt;div&gt;&lt;br&gt;&lt;/div&gt;" style="swimlane;fontStyle=0;childLayout=stackLayout;horizontal=1;startSize=30;horizontalStack=0;resizeParent=1;resizeParentMax=0;resizeLast=0;collapsible=1;marginBottom=0;whiteSpace=wrap;html=1;" vertex="1" parent="1">
          <mxGeometry x="600" y="160" width="190" height="60" as="geometry" />
        </mxCell>
        <mxCell id="yWzHGXZPGEPwO44Kcscn-32" value="&amp;lt;service operation&amp;gt;()" style="text;strokeColor=none;fillColor=none;align=left;verticalAlign=middle;spacingLeft=4;spacingRight=4;overflow=hidden;points=[[0,0.5],[1,0.5]];portConstraint=eastwest;rotatable=0;whiteSpace=wrap;html=1;" vertex="1" parent="yWzHGXZPGEPwO44Kcscn-31">
          <mxGeometry y="30" width="190" height="30" as="geometry" />
        </mxCell>
        <mxCell id="yWzHGXZPGEPwO44Kcscn-33" value="root" style="shape=note;whiteSpace=wrap;html=1;backgroundOutline=1;darkOpacity=0.05;size=13;" vertex="1" parent="1">
          <mxGeometry x="150" y="170" width="60" height="30" as="geometry" />
        </mxCell>
        <mxCell id="yWzHGXZPGEPwO44Kcscn-35" value="aggregate boundary" style="shape=note;whiteSpace=wrap;html=1;backgroundOutline=1;darkOpacity=0.05;size=13;" vertex="1" parent="1">
          <mxGeometry x="20" y="170" width="100" height="30" as="geometry" />
        </mxCell>
        <mxCell id="yWzHGXZPGEPwO44Kcscn-37" style="edgeStyle=orthogonalEdgeStyle;rounded=0;orthogonalLoop=1;jettySize=auto;html=1;entryX=0.25;entryY=0;entryDx=0;entryDy=0;endArrow=none;endFill=0;dashed=1;dashPattern=8 8;exitX=0.5;exitY=1;exitDx=0;exitDy=0;exitPerimeter=0;" edge="1" parent="1" source="yWzHGXZPGEPwO44Kcscn-35" target="yWzHGXZPGEPwO44Kcscn-11">
          <mxGeometry relative="1" as="geometry">
            <mxPoint x="300" y="210" as="sourcePoint" />
            <mxPoint x="300" y="290" as="targetPoint" />
          </mxGeometry>
        </mxCell>
        <mxCell id="yWzHGXZPGEPwO44Kcscn-49" style="edgeStyle=orthogonalEdgeStyle;rounded=0;orthogonalLoop=1;jettySize=auto;html=1;entryX=0.5;entryY=0;entryDx=0;entryDy=0;startArrow=diamondThin;startFill=1;" edge="1" parent="1" source="yWzHGXZPGEPwO44Kcscn-43" target="yWzHGXZPGEPwO44Kcscn-30">
          <mxGeometry relative="1" as="geometry" />
        </mxCell>
        <mxCell id="Baf63l5pZQIeTxcIQ0In-35" value="n" style="edgeLabel;html=1;align=center;verticalAlign=middle;resizable=0;points=[];" connectable="0" vertex="1" parent="yWzHGXZPGEPwO44Kcscn-49">
          <mxGeometry x="0.32" y="2" relative="1" as="geometry">
            <mxPoint as="offset" />
          </mxGeometry>
        </mxCell>
        <mxCell id="Baf63l5pZQIeTxcIQ0In-36" value="1" style="edgeLabel;html=1;align=center;verticalAlign=middle;resizable=0;points=[];" connectable="0" vertex="1" parent="yWzHGXZPGEPwO44Kcscn-49">
          <mxGeometry x="-0.6" relative="1" as="geometry">
            <mxPoint y="10" as="offset" />
          </mxGeometry>
        </mxCell>
        <mxCell id="Baf63l5pZQIeTxcIQ0In-29" style="edgeStyle=orthogonalEdgeStyle;rounded=0;orthogonalLoop=1;jettySize=auto;html=1;entryX=0;entryY=0.5;entryDx=0;entryDy=0;endArrow=diamondThin;endFill=1;" edge="1" parent="1" source="yWzHGXZPGEPwO44Kcscn-43" target="Baf63l5pZQIeTxcIQ0In-3">
          <mxGeometry relative="1" as="geometry" />
        </mxCell>
        <mxCell id="Baf63l5pZQIeTxcIQ0In-30" value="n" style="edgeLabel;html=1;align=center;verticalAlign=middle;resizable=0;points=[];" connectable="0" vertex="1" parent="Baf63l5pZQIeTxcIQ0In-29">
          <mxGeometry x="-0.84" y="2" relative="1" as="geometry">
            <mxPoint as="offset" />
          </mxGeometry>
        </mxCell>
        <mxCell id="Baf63l5pZQIeTxcIQ0In-31" value="1" style="edgeLabel;html=1;align=center;verticalAlign=middle;resizable=0;points=[];" connectable="0" vertex="1" parent="Baf63l5pZQIeTxcIQ0In-29">
          <mxGeometry x="0.68" y="-4" relative="1" as="geometry">
            <mxPoint as="offset" />
          </mxGeometry>
        </mxCell>
        <mxCell id="yWzHGXZPGEPwO44Kcscn-43" value="Pipeline" style="swimlane;fontStyle=0;childLayout=stackLayout;horizontal=1;startSize=30;horizontalStack=0;resizeParent=1;resizeParentMax=0;resizeLast=0;collapsible=1;marginBottom=0;whiteSpace=wrap;html=1;" vertex="1" parent="1">
          <mxGeometry x="220" y="420" width="140" height="150" as="geometry" />
        </mxCell>
        <mxCell id="yWzHGXZPGEPwO44Kcscn-44" value="stages" style="text;strokeColor=none;fillColor=none;align=left;verticalAlign=middle;spacingLeft=4;spacingRight=4;overflow=hidden;points=[[0,0.5],[1,0.5]];portConstraint=eastwest;rotatable=0;whiteSpace=wrap;html=1;" vertex="1" parent="yWzHGXZPGEPwO44Kcscn-43">
          <mxGeometry y="30" width="140" height="30" as="geometry" />
        </mxCell>
        <mxCell id="yWzHGXZPGEPwO44Kcscn-45" value="resources" style="text;strokeColor=none;fillColor=none;align=left;verticalAlign=middle;spacingLeft=4;spacingRight=4;overflow=hidden;points=[[0,0.5],[1,0.5]];portConstraint=eastwest;rotatable=0;whiteSpace=wrap;html=1;" vertex="1" parent="yWzHGXZPGEPwO44Kcscn-43">
          <mxGeometry y="60" width="140" height="30" as="geometry" />
        </mxCell>
        <mxCell id="yWzHGXZPGEPwO44Kcscn-46" value="env variables" style="text;strokeColor=none;fillColor=none;align=left;verticalAlign=middle;spacingLeft=4;spacingRight=4;overflow=hidden;points=[[0,0.5],[1,0.5]];portConstraint=eastwest;rotatable=0;whiteSpace=wrap;html=1;" vertex="1" parent="yWzHGXZPGEPwO44Kcscn-43">
          <mxGeometry y="90" width="140" height="30" as="geometry" />
        </mxCell>
        <mxCell id="yWzHGXZPGEPwO44Kcscn-47" value="monitoring services" style="text;strokeColor=none;fillColor=none;align=left;verticalAlign=middle;spacingLeft=4;spacingRight=4;overflow=hidden;points=[[0,0.5],[1,0.5]];portConstraint=eastwest;rotatable=0;whiteSpace=wrap;html=1;" vertex="1" parent="yWzHGXZPGEPwO44Kcscn-43">
          <mxGeometry y="120" width="140" height="30" as="geometry" />
        </mxCell>
        <mxCell id="yWzHGXZPGEPwO44Kcscn-56" style="edgeStyle=orthogonalEdgeStyle;rounded=0;orthogonalLoop=1;jettySize=auto;html=1;entryX=0;entryY=0.25;entryDx=0;entryDy=0;endArrow=none;endFill=0;dashed=1;dashPattern=8 8;exitX=0.5;exitY=1;exitDx=0;exitDy=0;exitPerimeter=0;" edge="1" parent="1" source="yWzHGXZPGEPwO44Kcscn-33" target="Baf63l5pZQIeTxcIQ0In-2">
          <mxGeometry relative="1" as="geometry">
            <mxPoint x="230" y="220" as="sourcePoint" />
            <mxPoint x="255" y="280" as="targetPoint" />
          </mxGeometry>
        </mxCell>
        <mxCell id="S8eGnjiq8VAXE1MzdPop-6" value="&lt;div&gt;&amp;lt;&amp;lt;domain service&amp;gt;&amp;gt;&lt;/div&gt;Syntax Analyzer" style="swimlane;fontStyle=0;childLayout=stackLayout;horizontal=1;startSize=30;horizontalStack=0;resizeParent=1;resizeParentMax=0;resizeLast=0;collapsible=1;marginBottom=0;whiteSpace=wrap;html=1;" vertex="1" parent="1">
          <mxGeometry x="139.99999999999994" y="920" width="210" height="60" as="geometry" />
        </mxCell>
        <mxCell id="S8eGnjiq8VAXE1MzdPop-7" value="getErrors(code: string)" style="text;strokeColor=none;fillColor=none;align=left;verticalAlign=middle;spacingLeft=4;spacingRight=4;overflow=hidden;points=[[0,0.5],[1,0.5]];portConstraint=eastwest;rotatable=0;whiteSpace=wrap;html=1;" vertex="1" parent="S8eGnjiq8VAXE1MzdPop-6">
          <mxGeometry y="30" width="210" height="30" as="geometry" />
        </mxCell>
        <mxCell id="Baf63l5pZQIeTxcIQ0In-7" style="edgeStyle=orthogonalEdgeStyle;rounded=0;orthogonalLoop=1;jettySize=auto;html=1;entryX=0;entryY=0.5;entryDx=0;entryDy=0;endArrow=none;endFill=0;" edge="1" parent="1" source="Baf63l5pZQIeTxcIQ0In-2" target="yWzHGXZPGEPwO44Kcscn-2">
          <mxGeometry relative="1" as="geometry" />
        </mxCell>
        <mxCell id="Baf63l5pZQIeTxcIQ0In-8" value="n" style="edgeLabel;html=1;align=center;verticalAlign=middle;resizable=0;points=[];" connectable="0" vertex="1" parent="Baf63l5pZQIeTxcIQ0In-7">
          <mxGeometry x="-0.8471" y="2" relative="1" as="geometry">
            <mxPoint as="offset" />
          </mxGeometry>
        </mxCell>
        <mxCell id="Baf63l5pZQIeTxcIQ0In-9" value="1" style="edgeLabel;html=1;align=center;verticalAlign=middle;resizable=0;points=[];" connectable="0" vertex="1" parent="Baf63l5pZQIeTxcIQ0In-7">
          <mxGeometry x="0.7529" relative="1" as="geometry">
            <mxPoint as="offset" />
          </mxGeometry>
        </mxCell>
        <mxCell id="uzgHoUzOkEo5gr_IbQHi-3" style="edgeStyle=orthogonalEdgeStyle;rounded=0;orthogonalLoop=1;jettySize=auto;html=1;entryX=1;entryY=0.5;entryDx=0;entryDy=0;endArrow=none;endFill=0;" edge="1" parent="1" source="Baf63l5pZQIeTxcIQ0In-2" target="uzgHoUzOkEo5gr_IbQHi-1">
          <mxGeometry relative="1" as="geometry" />
        </mxCell>
        <mxCell id="Baf63l5pZQIeTxcIQ0In-2" value="Experiment file" style="swimlane;fontStyle=0;childLayout=stackLayout;horizontal=1;startSize=30;horizontalStack=0;resizeParent=1;resizeParentMax=0;resizeLast=0;collapsible=1;marginBottom=0;whiteSpace=wrap;html=1;" vertex="1" parent="1">
          <mxGeometry x="230" y="300" width="140" height="60" as="geometry" />
        </mxCell>
        <mxCell id="Baf63l5pZQIeTxcIQ0In-3" value="pipelines" style="text;strokeColor=none;fillColor=none;align=left;verticalAlign=middle;spacingLeft=4;spacingRight=4;overflow=hidden;points=[[0,0.5],[1,0.5]];portConstraint=eastwest;rotatable=0;whiteSpace=wrap;html=1;" vertex="1" parent="Baf63l5pZQIeTxcIQ0In-2">
          <mxGeometry y="30" width="140" height="30" as="geometry" />
        </mxCell>
        <mxCell id="Baf63l5pZQIeTxcIQ0In-37" value="Computational Item" style="swimlane;fontStyle=1;align=center;verticalAlign=top;childLayout=stackLayout;horizontal=1;startSize=26;horizontalStack=0;resizeParent=1;resizeParentMax=0;resizeLast=0;collapsible=1;marginBottom=0;whiteSpace=wrap;html=1;" vertex="1" parent="1">
          <mxGeometry x="610" y="730" width="150" height="138" as="geometry" />
        </mxCell>
        <mxCell id="Baf63l5pZQIeTxcIQ0In-38" value="+ contents" style="text;strokeColor=none;fillColor=none;align=left;verticalAlign=top;spacingLeft=4;spacingRight=4;overflow=hidden;rotatable=0;points=[[0,0.5],[1,0.5]];portConstraint=eastwest;whiteSpace=wrap;html=1;" vertex="1" parent="Baf63l5pZQIeTxcIQ0In-37">
          <mxGeometry y="26" width="150" height="26" as="geometry" />
        </mxCell>
        <mxCell id="Baf63l5pZQIeTxcIQ0In-39" value="" style="line;strokeWidth=1;fillColor=none;align=left;verticalAlign=middle;spacingTop=-1;spacingLeft=3;spacingRight=3;rotatable=0;labelPosition=right;points=[];portConstraint=eastwest;strokeColor=inherit;" vertex="1" parent="Baf63l5pZQIeTxcIQ0In-37">
          <mxGeometry y="52" width="150" height="8" as="geometry" />
        </mxCell>
        <mxCell id="Baf63l5pZQIeTxcIQ0In-40" value="+ Read()" style="text;strokeColor=none;fillColor=none;align=left;verticalAlign=top;spacingLeft=4;spacingRight=4;overflow=hidden;rotatable=0;points=[[0,0.5],[1,0.5]];portConstraint=eastwest;whiteSpace=wrap;html=1;" vertex="1" parent="Baf63l5pZQIeTxcIQ0In-37">
          <mxGeometry y="60" width="150" height="26" as="geometry" />
        </mxCell>
        <mxCell id="Baf63l5pZQIeTxcIQ0In-41" value="+ Write()" style="text;strokeColor=none;fillColor=none;align=left;verticalAlign=top;spacingLeft=4;spacingRight=4;overflow=hidden;rotatable=0;points=[[0,0.5],[1,0.5]];portConstraint=eastwest;whiteSpace=wrap;html=1;" vertex="1" parent="Baf63l5pZQIeTxcIQ0In-37">
          <mxGeometry y="86" width="150" height="26" as="geometry" />
        </mxCell>
        <mxCell id="Baf63l5pZQIeTxcIQ0In-42" value="+ Execute()" style="text;strokeColor=none;fillColor=none;align=left;verticalAlign=top;spacingLeft=4;spacingRight=4;overflow=hidden;rotatable=0;points=[[0,0.5],[1,0.5]];portConstraint=eastwest;whiteSpace=wrap;html=1;" vertex="1" parent="Baf63l5pZQIeTxcIQ0In-37">
          <mxGeometry y="112" width="150" height="26" as="geometry" />
        </mxCell>
        <mxCell id="Baf63l5pZQIeTxcIQ0In-62" style="edgeStyle=orthogonalEdgeStyle;rounded=0;orthogonalLoop=1;jettySize=auto;html=1;entryX=0.75;entryY=0;entryDx=0;entryDy=0;dashed=1;" edge="1" parent="1" source="Baf63l5pZQIeTxcIQ0In-43" target="yWzHGXZPGEPwO44Kcscn-25">
          <mxGeometry relative="1" as="geometry" />
        </mxCell>
        <mxCell id="Baf63l5pZQIeTxcIQ0In-43" value="Input data" style="swimlane;fontStyle=1;align=center;verticalAlign=top;childLayout=stackLayout;horizontal=1;startSize=26;horizontalStack=0;resizeParent=1;resizeParentMax=0;resizeLast=0;collapsible=1;marginBottom=0;whiteSpace=wrap;html=1;" vertex="1" parent="1">
          <mxGeometry x="610" y="484" width="150" height="112" as="geometry" />
        </mxCell>
        <mxCell id="Baf63l5pZQIeTxcIQ0In-44" value="+ contents" style="text;strokeColor=none;fillColor=none;align=left;verticalAlign=top;spacingLeft=4;spacingRight=4;overflow=hidden;rotatable=0;points=[[0,0.5],[1,0.5]];portConstraint=eastwest;whiteSpace=wrap;html=1;" vertex="1" parent="Baf63l5pZQIeTxcIQ0In-43">
          <mxGeometry y="26" width="150" height="26" as="geometry" />
        </mxCell>
        <mxCell id="Baf63l5pZQIeTxcIQ0In-45" value="" style="line;strokeWidth=1;fillColor=none;align=left;verticalAlign=middle;spacingTop=-1;spacingLeft=3;spacingRight=3;rotatable=0;labelPosition=right;points=[];portConstraint=eastwest;strokeColor=inherit;" vertex="1" parent="Baf63l5pZQIeTxcIQ0In-43">
          <mxGeometry y="52" width="150" height="8" as="geometry" />
        </mxCell>
        <mxCell id="Baf63l5pZQIeTxcIQ0In-46" value="+ Read()" style="text;strokeColor=none;fillColor=none;align=left;verticalAlign=top;spacingLeft=4;spacingRight=4;overflow=hidden;rotatable=0;points=[[0,0.5],[1,0.5]];portConstraint=eastwest;whiteSpace=wrap;html=1;" vertex="1" parent="Baf63l5pZQIeTxcIQ0In-43">
          <mxGeometry y="60" width="150" height="26" as="geometry" />
        </mxCell>
        <mxCell id="Baf63l5pZQIeTxcIQ0In-47" value="+ Write()" style="text;strokeColor=none;fillColor=none;align=left;verticalAlign=top;spacingLeft=4;spacingRight=4;overflow=hidden;rotatable=0;points=[[0,0.5],[1,0.5]];portConstraint=eastwest;whiteSpace=wrap;html=1;" vertex="1" parent="Baf63l5pZQIeTxcIQ0In-43">
          <mxGeometry y="86" width="150" height="26" as="geometry" />
        </mxCell>
        <mxCell id="Baf63l5pZQIeTxcIQ0In-63" style="edgeStyle=orthogonalEdgeStyle;rounded=0;orthogonalLoop=1;jettySize=auto;html=1;entryX=1;entryY=0.5;entryDx=0;entryDy=0;dashed=1;" edge="1" parent="1" source="Baf63l5pZQIeTxcIQ0In-49" target="yWzHGXZPGEPwO44Kcscn-26">
          <mxGeometry relative="1" as="geometry" />
        </mxCell>
        <mxCell id="Baf63l5pZQIeTxcIQ0In-49" value="Output data" style="swimlane;fontStyle=1;align=center;verticalAlign=top;childLayout=stackLayout;horizontal=1;startSize=26;horizontalStack=0;resizeParent=1;resizeParentMax=0;resizeLast=0;collapsible=1;marginBottom=0;whiteSpace=wrap;html=1;" vertex="1" parent="1">
          <mxGeometry x="610" y="609" width="150" height="112" as="geometry" />
        </mxCell>
        <mxCell id="Baf63l5pZQIeTxcIQ0In-50" value="+ contents" style="text;strokeColor=none;fillColor=none;align=left;verticalAlign=top;spacingLeft=4;spacingRight=4;overflow=hidden;rotatable=0;points=[[0,0.5],[1,0.5]];portConstraint=eastwest;whiteSpace=wrap;html=1;" vertex="1" parent="Baf63l5pZQIeTxcIQ0In-49">
          <mxGeometry y="26" width="150" height="26" as="geometry" />
        </mxCell>
        <mxCell id="Baf63l5pZQIeTxcIQ0In-51" value="" style="line;strokeWidth=1;fillColor=none;align=left;verticalAlign=middle;spacingTop=-1;spacingLeft=3;spacingRight=3;rotatable=0;labelPosition=right;points=[];portConstraint=eastwest;strokeColor=inherit;" vertex="1" parent="Baf63l5pZQIeTxcIQ0In-49">
          <mxGeometry y="52" width="150" height="8" as="geometry" />
        </mxCell>
        <mxCell id="Baf63l5pZQIeTxcIQ0In-52" value="+ Read()" style="text;strokeColor=none;fillColor=none;align=left;verticalAlign=top;spacingLeft=4;spacingRight=4;overflow=hidden;rotatable=0;points=[[0,0.5],[1,0.5]];portConstraint=eastwest;whiteSpace=wrap;html=1;" vertex="1" parent="Baf63l5pZQIeTxcIQ0In-49">
          <mxGeometry y="60" width="150" height="26" as="geometry" />
        </mxCell>
        <mxCell id="Baf63l5pZQIeTxcIQ0In-53" value="+ Write()" style="text;strokeColor=none;fillColor=none;align=left;verticalAlign=top;spacingLeft=4;spacingRight=4;overflow=hidden;rotatable=0;points=[[0,0.5],[1,0.5]];portConstraint=eastwest;whiteSpace=wrap;html=1;" vertex="1" parent="Baf63l5pZQIeTxcIQ0In-49">
          <mxGeometry y="86" width="150" height="26" as="geometry" />
        </mxCell>
        <mxCell id="Baf63l5pZQIeTxcIQ0In-59" style="edgeStyle=orthogonalEdgeStyle;rounded=0;orthogonalLoop=1;jettySize=auto;html=1;entryX=1;entryY=0.5;entryDx=0;entryDy=0;" edge="1" parent="1" source="Baf63l5pZQIeTxcIQ0In-56" target="yWzHGXZPGEPwO44Kcscn-44">
          <mxGeometry relative="1" as="geometry" />
        </mxCell>
        <mxCell id="Baf63l5pZQIeTxcIQ0In-60" value="1" style="edgeLabel;html=1;align=center;verticalAlign=middle;resizable=0;points=[];" connectable="0" vertex="1" parent="Baf63l5pZQIeTxcIQ0In-59">
          <mxGeometry x="-0.8897" y="-1" relative="1" as="geometry">
            <mxPoint as="offset" />
          </mxGeometry>
        </mxCell>
        <mxCell id="Baf63l5pZQIeTxcIQ0In-56" value="&lt;div&gt;&amp;lt;&amp;lt;domain service&amp;gt;&amp;gt;&lt;/div&gt;MLDev Builder" style="swimlane;fontStyle=1;align=center;verticalAlign=top;childLayout=stackLayout;horizontal=1;startSize=26;horizontalStack=0;resizeParent=1;resizeParentMax=0;resizeLast=0;collapsible=1;marginBottom=0;whiteSpace=wrap;html=1;" vertex="1" parent="1">
          <mxGeometry x="870" y="140" width="220" height="60" as="geometry" />
        </mxCell>
        <mxCell id="Baf63l5pZQIeTxcIQ0In-57" value="" style="line;strokeWidth=1;fillColor=none;align=left;verticalAlign=middle;spacingTop=-1;spacingLeft=3;spacingRight=3;rotatable=0;labelPosition=right;points=[];portConstraint=eastwest;strokeColor=inherit;" vertex="1" parent="Baf63l5pZQIeTxcIQ0In-56">
          <mxGeometry y="26" width="220" height="8" as="geometry" />
        </mxCell>
        <mxCell id="Baf63l5pZQIeTxcIQ0In-58" value="+ build(pipeline: string): artifact[]" style="text;strokeColor=none;fillColor=none;align=left;verticalAlign=top;spacingLeft=4;spacingRight=4;overflow=hidden;rotatable=0;points=[[0,0.5],[1,0.5]];portConstraint=eastwest;whiteSpace=wrap;html=1;" vertex="1" parent="Baf63l5pZQIeTxcIQ0In-56">
          <mxGeometry y="34" width="220" height="26" as="geometry" />
        </mxCell>
        <mxCell id="Baf63l5pZQIeTxcIQ0In-64" style="edgeStyle=orthogonalEdgeStyle;rounded=0;orthogonalLoop=1;jettySize=auto;html=1;entryX=0.779;entryY=0.967;entryDx=0;entryDy=0;entryPerimeter=0;dashed=1;" edge="1" parent="1" source="Baf63l5pZQIeTxcIQ0In-37" target="yWzHGXZPGEPwO44Kcscn-26">
          <mxGeometry relative="1" as="geometry">
            <Array as="points">
              <mxPoint x="479" y="810" />
            </Array>
          </mxGeometry>
        </mxCell>
        <mxCell id="Baf63l5pZQIeTxcIQ0In-67" style="edgeStyle=orthogonalEdgeStyle;rounded=0;orthogonalLoop=1;jettySize=auto;html=1;entryX=0;entryY=0.5;entryDx=0;entryDy=0;endArrow=none;endFill=0;" edge="1" parent="1" source="Baf63l5pZQIeTxcIQ0In-65" target="Baf63l5pZQIeTxcIQ0In-2">
          <mxGeometry relative="1" as="geometry" />
        </mxCell>
        <mxCell id="Baf63l5pZQIeTxcIQ0In-65" value="&lt;div&gt;&amp;nbsp;&lt;span style=&quot;background-color: initial;&quot;&gt;&amp;lt;&amp;lt;domain service&amp;gt;&amp;gt;&lt;/span&gt;&lt;/div&gt;&lt;div&gt;Execution service&lt;/div&gt;" style="swimlane;fontStyle=0;childLayout=stackLayout;horizontal=1;startSize=30;horizontalStack=0;resizeParent=1;resizeParentMax=0;resizeLast=0;collapsible=1;marginBottom=0;whiteSpace=wrap;html=1;" vertex="1" parent="1">
          <mxGeometry x="-220" y="300" width="190" height="60" as="geometry" />
        </mxCell>
        <mxCell id="Baf63l5pZQIeTxcIQ0In-66" value="&amp;lt;service operation&amp;gt;()" style="text;strokeColor=none;fillColor=none;align=left;verticalAlign=middle;spacingLeft=4;spacingRight=4;overflow=hidden;points=[[0,0.5],[1,0.5]];portConstraint=eastwest;rotatable=0;whiteSpace=wrap;html=1;" vertex="1" parent="Baf63l5pZQIeTxcIQ0In-65">
          <mxGeometry y="30" width="190" height="30" as="geometry" />
        </mxCell>
        <mxCell id="uzgHoUzOkEo5gr_IbQHi-1" value="&lt;div&gt;&amp;nbsp;&lt;span style=&quot;background-color: initial;&quot;&gt;&amp;lt;&amp;lt;repository&amp;gt;&amp;gt;&lt;/span&gt;&lt;/div&gt;Visualizer&lt;br&gt;&lt;div&gt;&lt;br&gt;&lt;/div&gt;" style="swimlane;fontStyle=0;childLayout=stackLayout;horizontal=1;startSize=30;horizontalStack=0;resizeParent=1;resizeParentMax=0;resizeLast=0;collapsible=1;marginBottom=0;whiteSpace=wrap;html=1;" vertex="1" parent="1">
          <mxGeometry x="-220" y="510" width="190" height="60" as="geometry" />
        </mxCell>
        <mxCell id="uzgHoUzOkEo5gr_IbQHi-2" value="draw(f: Experiment)" style="text;strokeColor=none;fillColor=none;align=left;verticalAlign=middle;spacingLeft=4;spacingRight=4;overflow=hidden;points=[[0,0.5],[1,0.5]];portConstraint=eastwest;rotatable=0;whiteSpace=wrap;html=1;" vertex="1" parent="uzgHoUzOkEo5gr_IbQHi-1">
          <mxGeometry y="30" width="190" height="30" as="geometry" />
        </mxCell>
      </root>
    </mxGraphModel>
  </diagram>
  <diagram id="CdLGB3_JAx7Kw-ORpGpi" name="Страница — 2">
    <mxGraphModel grid="1" page="1" gridSize="10" guides="1" tooltips="1" connect="1" arrows="1" fold="1" pageScale="1" pageWidth="827" pageHeight="1169" math="0" shadow="0">
      <root>
        <mxCell id="0" />
        <mxCell id="1" parent="0" />
        <mxCell id="BIRITO1jmdsO6rU4qYLa-1" value="&lt;div&gt;&amp;lt;&amp;lt;repository&amp;gt;&amp;gt;&lt;br&gt;&lt;/div&gt;Git Repository" style="swimlane;fontStyle=0;childLayout=stackLayout;horizontal=1;startSize=30;horizontalStack=0;resizeParent=1;resizeParentMax=0;resizeLast=0;collapsible=1;marginBottom=0;whiteSpace=wrap;html=1;" vertex="1" parent="1">
          <mxGeometry x="335" y="120" width="210" height="120" as="geometry" />
        </mxCell>
        <mxCell id="BIRITO1jmdsO6rU4qYLa-2" value="experiments" style="text;strokeColor=none;fillColor=none;align=left;verticalAlign=middle;spacingLeft=4;spacingRight=4;overflow=hidden;points=[[0,0.5],[1,0.5]];portConstraint=eastwest;rotatable=0;whiteSpace=wrap;html=1;" vertex="1" parent="BIRITO1jmdsO6rU4qYLa-1">
          <mxGeometry y="30" width="210" height="30" as="geometry" />
        </mxCell>
        <mxCell id="BIRITO1jmdsO6rU4qYLa-3" value="&amp;lt;git operation&amp;gt;()" style="text;strokeColor=none;fillColor=none;align=left;verticalAlign=middle;spacingLeft=4;spacingRight=4;overflow=hidden;points=[[0,0.5],[1,0.5]];portConstraint=eastwest;rotatable=0;whiteSpace=wrap;html=1;" vertex="1" parent="BIRITO1jmdsO6rU4qYLa-1">
          <mxGeometry y="60" width="210" height="30" as="geometry" />
        </mxCell>
        <mxCell id="BIRITO1jmdsO6rU4qYLa-4" value="getCICDWebHook(): URI" style="text;strokeColor=none;fillColor=none;align=left;verticalAlign=middle;spacingLeft=4;spacingRight=4;overflow=hidden;points=[[0,0.5],[1,0.5]];portConstraint=eastwest;rotatable=0;whiteSpace=wrap;html=1;" vertex="1" parent="BIRITO1jmdsO6rU4qYLa-1">
          <mxGeometry y="90" width="210" height="30" as="geometry" />
        </mxCell>
        <mxCell id="BIRITO1jmdsO6rU4qYLa-5" value="" style="rounded=1;whiteSpace=wrap;html=1;" vertex="1" parent="1">
          <mxGeometry x="40" y="260" width="500" height="510" as="geometry" />
        </mxCell>
        <mxCell id="BIRITO1jmdsO6rU4qYLa-6" style="edgeStyle=orthogonalEdgeStyle;rounded=0;orthogonalLoop=1;jettySize=auto;html=1;entryX=0;entryY=0.5;entryDx=0;entryDy=0;endArrow=diamondThin;endFill=1;" edge="1" parent="1" source="BIRITO1jmdsO6rU4qYLa-9" target="BIRITO1jmdsO6rU4qYLa-32">
          <mxGeometry relative="1" as="geometry" />
        </mxCell>
        <mxCell id="BIRITO1jmdsO6rU4qYLa-7" value="n" style="edgeLabel;html=1;align=center;verticalAlign=middle;resizable=0;points=[];" connectable="0" vertex="1" parent="BIRITO1jmdsO6rU4qYLa-6">
          <mxGeometry x="-0.8431" y="2" relative="1" as="geometry">
            <mxPoint as="offset" />
          </mxGeometry>
        </mxCell>
        <mxCell id="BIRITO1jmdsO6rU4qYLa-8" value="1" style="edgeLabel;html=1;align=center;verticalAlign=middle;resizable=0;points=[];" connectable="0" vertex="1" parent="BIRITO1jmdsO6rU4qYLa-6">
          <mxGeometry x="0.8353" y="2" relative="1" as="geometry">
            <mxPoint as="offset" />
          </mxGeometry>
        </mxCell>
        <mxCell id="BIRITO1jmdsO6rU4qYLa-9" value="Stage" style="swimlane;fontStyle=0;childLayout=stackLayout;horizontal=1;startSize=30;horizontalStack=0;resizeParent=1;resizeParentMax=0;resizeLast=0;collapsible=1;marginBottom=0;whiteSpace=wrap;html=1;" vertex="1" parent="1">
          <mxGeometry x="50" y="620" width="140" height="60" as="geometry" />
        </mxCell>
        <mxCell id="BIRITO1jmdsO6rU4qYLa-10" value="contents" style="text;strokeColor=none;fillColor=none;align=left;verticalAlign=middle;spacingLeft=4;spacingRight=4;overflow=hidden;points=[[0,0.5],[1,0.5]];portConstraint=eastwest;rotatable=0;whiteSpace=wrap;html=1;" vertex="1" parent="BIRITO1jmdsO6rU4qYLa-9">
          <mxGeometry y="30" width="140" height="30" as="geometry" />
        </mxCell>
        <mxCell id="BIRITO1jmdsO6rU4qYLa-11" style="edgeStyle=orthogonalEdgeStyle;rounded=0;orthogonalLoop=1;jettySize=auto;html=1;entryX=1;entryY=0.5;entryDx=0;entryDy=0;endArrow=diamond;endFill=1;" edge="1" parent="1" source="BIRITO1jmdsO6rU4qYLa-14" target="BIRITO1jmdsO6rU4qYLa-33">
          <mxGeometry relative="1" as="geometry" />
        </mxCell>
        <mxCell id="BIRITO1jmdsO6rU4qYLa-12" value="n" style="edgeLabel;html=1;align=center;verticalAlign=middle;resizable=0;points=[];" connectable="0" vertex="1" parent="BIRITO1jmdsO6rU4qYLa-11">
          <mxGeometry x="-0.8341" y="-2" relative="1" as="geometry">
            <mxPoint as="offset" />
          </mxGeometry>
        </mxCell>
        <mxCell id="BIRITO1jmdsO6rU4qYLa-13" value="1" style="edgeLabel;html=1;align=center;verticalAlign=middle;resizable=0;points=[];" connectable="0" vertex="1" parent="BIRITO1jmdsO6rU4qYLa-11">
          <mxGeometry x="0.8244" y="1" relative="1" as="geometry">
            <mxPoint as="offset" />
          </mxGeometry>
        </mxCell>
        <mxCell id="BIRITO1jmdsO6rU4qYLa-14" value="Resource" style="swimlane;fontStyle=0;childLayout=stackLayout;horizontal=1;startSize=30;horizontalStack=0;resizeParent=1;resizeParentMax=0;resizeLast=0;collapsible=1;marginBottom=0;whiteSpace=wrap;html=1;" vertex="1" parent="1">
          <mxGeometry x="370" y="620" width="140" height="60" as="geometry" />
        </mxCell>
        <mxCell id="BIRITO1jmdsO6rU4qYLa-15" value="contents" style="text;strokeColor=none;fillColor=none;align=left;verticalAlign=middle;spacingLeft=4;spacingRight=4;overflow=hidden;points=[[0,0.5],[1,0.5]];portConstraint=eastwest;rotatable=0;whiteSpace=wrap;html=1;" vertex="1" parent="BIRITO1jmdsO6rU4qYLa-14">
          <mxGeometry y="30" width="140" height="30" as="geometry" />
        </mxCell>
        <mxCell id="BIRITO1jmdsO6rU4qYLa-16" value="Env Variable" style="rounded=0;whiteSpace=wrap;html=1;align=center;verticalAlign=top;" vertex="1" parent="1">
          <mxGeometry x="230" y="620" width="120" height="60" as="geometry" />
        </mxCell>
        <mxCell id="BIRITO1jmdsO6rU4qYLa-17" style="edgeStyle=orthogonalEdgeStyle;rounded=0;orthogonalLoop=1;jettySize=auto;html=1;entryX=1;entryY=0.5;entryDx=0;entryDy=0;endArrow=diamondThin;endFill=1;" edge="1" parent="1" source="BIRITO1jmdsO6rU4qYLa-20" target="BIRITO1jmdsO6rU4qYLa-35">
          <mxGeometry relative="1" as="geometry" />
        </mxCell>
        <mxCell id="BIRITO1jmdsO6rU4qYLa-18" value="n" style="edgeLabel;html=1;align=center;verticalAlign=middle;resizable=0;points=[];" connectable="0" vertex="1" parent="BIRITO1jmdsO6rU4qYLa-17">
          <mxGeometry x="-0.8025" y="-3" relative="1" as="geometry">
            <mxPoint as="offset" />
          </mxGeometry>
        </mxCell>
        <mxCell id="BIRITO1jmdsO6rU4qYLa-19" value="1" style="edgeLabel;html=1;align=center;verticalAlign=middle;resizable=0;points=[];" connectable="0" vertex="1" parent="BIRITO1jmdsO6rU4qYLa-17">
          <mxGeometry x="0.8361" y="-3" relative="1" as="geometry">
            <mxPoint as="offset" />
          </mxGeometry>
        </mxCell>
        <mxCell id="BIRITO1jmdsO6rU4qYLa-20" value="&lt;div&gt;&amp;nbsp;&lt;span style=&quot;background-color: initial;&quot;&gt;&amp;lt;&amp;lt;repository&amp;gt;&amp;gt;&lt;/span&gt;&lt;/div&gt;Monitoring Service Repository&lt;div&gt;&lt;br&gt;&lt;/div&gt;" style="swimlane;fontStyle=0;childLayout=stackLayout;horizontal=1;startSize=30;horizontalStack=0;resizeParent=1;resizeParentMax=0;resizeLast=0;collapsible=1;marginBottom=0;whiteSpace=wrap;html=1;" vertex="1" parent="1">
          <mxGeometry x="620" y="480" width="190" height="60" as="geometry" />
        </mxCell>
        <mxCell id="BIRITO1jmdsO6rU4qYLa-21" value="&amp;lt;service operation&amp;gt;()" style="text;strokeColor=none;fillColor=none;align=left;verticalAlign=middle;spacingLeft=4;spacingRight=4;overflow=hidden;points=[[0,0.5],[1,0.5]];portConstraint=eastwest;rotatable=0;whiteSpace=wrap;html=1;" vertex="1" parent="BIRITO1jmdsO6rU4qYLa-20">
          <mxGeometry y="30" width="190" height="30" as="geometry" />
        </mxCell>
        <mxCell id="BIRITO1jmdsO6rU4qYLa-22" value="root" style="shape=note;whiteSpace=wrap;html=1;backgroundOutline=1;darkOpacity=0.05;size=13;" vertex="1" parent="1">
          <mxGeometry x="150" y="170" width="60" height="30" as="geometry" />
        </mxCell>
        <mxCell id="BIRITO1jmdsO6rU4qYLa-23" value="aggregate boundary" style="shape=note;whiteSpace=wrap;html=1;backgroundOutline=1;darkOpacity=0.05;size=13;" vertex="1" parent="1">
          <mxGeometry x="20" y="170" width="100" height="30" as="geometry" />
        </mxCell>
        <mxCell id="BIRITO1jmdsO6rU4qYLa-24" style="edgeStyle=orthogonalEdgeStyle;rounded=0;orthogonalLoop=1;jettySize=auto;html=1;entryX=0.25;entryY=0;entryDx=0;entryDy=0;endArrow=none;endFill=0;dashed=1;dashPattern=8 8;exitX=0.5;exitY=1;exitDx=0;exitDy=0;exitPerimeter=0;" edge="1" parent="1" source="BIRITO1jmdsO6rU4qYLa-23" target="BIRITO1jmdsO6rU4qYLa-5">
          <mxGeometry relative="1" as="geometry">
            <mxPoint x="300" y="210" as="sourcePoint" />
            <mxPoint x="300" y="290" as="targetPoint" />
          </mxGeometry>
        </mxCell>
        <mxCell id="BIRITO1jmdsO6rU4qYLa-25" style="edgeStyle=orthogonalEdgeStyle;rounded=0;orthogonalLoop=1;jettySize=auto;html=1;entryX=0.5;entryY=0;entryDx=0;entryDy=0;startArrow=diamondThin;startFill=1;" edge="1" parent="1" source="BIRITO1jmdsO6rU4qYLa-31" target="BIRITO1jmdsO6rU4qYLa-16">
          <mxGeometry relative="1" as="geometry" />
        </mxCell>
        <mxCell id="BIRITO1jmdsO6rU4qYLa-26" value="n" style="edgeLabel;html=1;align=center;verticalAlign=middle;resizable=0;points=[];" connectable="0" vertex="1" parent="BIRITO1jmdsO6rU4qYLa-25">
          <mxGeometry x="0.32" y="2" relative="1" as="geometry">
            <mxPoint as="offset" />
          </mxGeometry>
        </mxCell>
        <mxCell id="BIRITO1jmdsO6rU4qYLa-27" value="1" style="edgeLabel;html=1;align=center;verticalAlign=middle;resizable=0;points=[];" connectable="0" vertex="1" parent="BIRITO1jmdsO6rU4qYLa-25">
          <mxGeometry x="-0.6" relative="1" as="geometry">
            <mxPoint y="10" as="offset" />
          </mxGeometry>
        </mxCell>
        <mxCell id="BIRITO1jmdsO6rU4qYLa-28" style="edgeStyle=orthogonalEdgeStyle;rounded=0;orthogonalLoop=1;jettySize=auto;html=1;entryX=0;entryY=0.5;entryDx=0;entryDy=0;endArrow=diamondThin;endFill=1;" edge="1" parent="1" source="BIRITO1jmdsO6rU4qYLa-31" target="BIRITO1jmdsO6rU4qYLa-45">
          <mxGeometry relative="1" as="geometry" />
        </mxCell>
        <mxCell id="BIRITO1jmdsO6rU4qYLa-29" value="n" style="edgeLabel;html=1;align=center;verticalAlign=middle;resizable=0;points=[];" connectable="0" vertex="1" parent="BIRITO1jmdsO6rU4qYLa-28">
          <mxGeometry x="-0.84" y="2" relative="1" as="geometry">
            <mxPoint as="offset" />
          </mxGeometry>
        </mxCell>
        <mxCell id="BIRITO1jmdsO6rU4qYLa-30" value="1" style="edgeLabel;html=1;align=center;verticalAlign=middle;resizable=0;points=[];" connectable="0" vertex="1" parent="BIRITO1jmdsO6rU4qYLa-28">
          <mxGeometry x="0.68" y="-4" relative="1" as="geometry">
            <mxPoint as="offset" />
          </mxGeometry>
        </mxCell>
        <mxCell id="BIRITO1jmdsO6rU4qYLa-31" value="Pipeline" style="swimlane;fontStyle=0;childLayout=stackLayout;horizontal=1;startSize=30;horizontalStack=0;resizeParent=1;resizeParentMax=0;resizeLast=0;collapsible=1;marginBottom=0;whiteSpace=wrap;html=1;" vertex="1" parent="1">
          <mxGeometry x="220" y="420" width="140" height="150" as="geometry" />
        </mxCell>
        <mxCell id="BIRITO1jmdsO6rU4qYLa-32" value="stages" style="text;strokeColor=none;fillColor=none;align=left;verticalAlign=middle;spacingLeft=4;spacingRight=4;overflow=hidden;points=[[0,0.5],[1,0.5]];portConstraint=eastwest;rotatable=0;whiteSpace=wrap;html=1;" vertex="1" parent="BIRITO1jmdsO6rU4qYLa-31">
          <mxGeometry y="30" width="140" height="30" as="geometry" />
        </mxCell>
        <mxCell id="BIRITO1jmdsO6rU4qYLa-33" value="resources" style="text;strokeColor=none;fillColor=none;align=left;verticalAlign=middle;spacingLeft=4;spacingRight=4;overflow=hidden;points=[[0,0.5],[1,0.5]];portConstraint=eastwest;rotatable=0;whiteSpace=wrap;html=1;" vertex="1" parent="BIRITO1jmdsO6rU4qYLa-31">
          <mxGeometry y="60" width="140" height="30" as="geometry" />
        </mxCell>
        <mxCell id="BIRITO1jmdsO6rU4qYLa-34" value="env variables" style="text;strokeColor=none;fillColor=none;align=left;verticalAlign=middle;spacingLeft=4;spacingRight=4;overflow=hidden;points=[[0,0.5],[1,0.5]];portConstraint=eastwest;rotatable=0;whiteSpace=wrap;html=1;" vertex="1" parent="BIRITO1jmdsO6rU4qYLa-31">
          <mxGeometry y="90" width="140" height="30" as="geometry" />
        </mxCell>
        <mxCell id="BIRITO1jmdsO6rU4qYLa-35" value="monitoring services" style="text;strokeColor=none;fillColor=none;align=left;verticalAlign=middle;spacingLeft=4;spacingRight=4;overflow=hidden;points=[[0,0.5],[1,0.5]];portConstraint=eastwest;rotatable=0;whiteSpace=wrap;html=1;" vertex="1" parent="BIRITO1jmdsO6rU4qYLa-31">
          <mxGeometry y="120" width="140" height="30" as="geometry" />
        </mxCell>
        <mxCell id="BIRITO1jmdsO6rU4qYLa-36" style="edgeStyle=orthogonalEdgeStyle;rounded=0;orthogonalLoop=1;jettySize=auto;html=1;entryX=0;entryY=0.25;entryDx=0;entryDy=0;endArrow=none;endFill=0;dashed=1;dashPattern=8 8;exitX=0.5;exitY=1;exitDx=0;exitDy=0;exitPerimeter=0;" edge="1" parent="1" source="BIRITO1jmdsO6rU4qYLa-22" target="BIRITO1jmdsO6rU4qYLa-44">
          <mxGeometry relative="1" as="geometry">
            <mxPoint x="230" y="220" as="sourcePoint" />
            <mxPoint x="255" y="280" as="targetPoint" />
          </mxGeometry>
        </mxCell>
        <mxCell id="BIRITO1jmdsO6rU4qYLa-37" value="Source Code Line" style="rounded=0;whiteSpace=wrap;html=1;align=center;verticalAlign=top;" vertex="1" parent="1">
          <mxGeometry x="230" y="700" width="120" height="60" as="geometry" />
        </mxCell>
        <mxCell id="BIRITO1jmdsO6rU4qYLa-38" style="edgeStyle=orthogonalEdgeStyle;rounded=0;orthogonalLoop=1;jettySize=auto;html=1;entryX=0.5;entryY=1;entryDx=0;entryDy=0;endArrow=none;endFill=0;" edge="1" parent="1" source="BIRITO1jmdsO6rU4qYLa-39" target="BIRITO1jmdsO6rU4qYLa-37">
          <mxGeometry relative="1" as="geometry" />
        </mxCell>
        <mxCell id="BIRITO1jmdsO6rU4qYLa-39" value="&lt;div&gt;&amp;lt;&amp;lt;domain service&amp;gt;&amp;gt;&lt;/div&gt;Syntax Analyzer" style="swimlane;fontStyle=0;childLayout=stackLayout;horizontal=1;startSize=30;horizontalStack=0;resizeParent=1;resizeParentMax=0;resizeLast=0;collapsible=1;marginBottom=0;whiteSpace=wrap;html=1;" vertex="1" parent="1">
          <mxGeometry x="184.99999999999994" y="840" width="210" height="60" as="geometry" />
        </mxCell>
        <mxCell id="BIRITO1jmdsO6rU4qYLa-40" value="getErrors(code: string)" style="text;strokeColor=none;fillColor=none;align=left;verticalAlign=middle;spacingLeft=4;spacingRight=4;overflow=hidden;points=[[0,0.5],[1,0.5]];portConstraint=eastwest;rotatable=0;whiteSpace=wrap;html=1;" vertex="1" parent="BIRITO1jmdsO6rU4qYLa-39">
          <mxGeometry y="30" width="210" height="30" as="geometry" />
        </mxCell>
        <mxCell id="BIRITO1jmdsO6rU4qYLa-41" style="edgeStyle=orthogonalEdgeStyle;rounded=0;orthogonalLoop=1;jettySize=auto;html=1;entryX=0;entryY=0.5;entryDx=0;entryDy=0;endArrow=none;endFill=0;" edge="1" parent="1" source="BIRITO1jmdsO6rU4qYLa-44" target="BIRITO1jmdsO6rU4qYLa-2">
          <mxGeometry relative="1" as="geometry" />
        </mxCell>
        <mxCell id="BIRITO1jmdsO6rU4qYLa-42" value="n" style="edgeLabel;html=1;align=center;verticalAlign=middle;resizable=0;points=[];" connectable="0" vertex="1" parent="BIRITO1jmdsO6rU4qYLa-41">
          <mxGeometry x="-0.8471" y="2" relative="1" as="geometry">
            <mxPoint as="offset" />
          </mxGeometry>
        </mxCell>
        <mxCell id="BIRITO1jmdsO6rU4qYLa-43" value="1" style="edgeLabel;html=1;align=center;verticalAlign=middle;resizable=0;points=[];" connectable="0" vertex="1" parent="BIRITO1jmdsO6rU4qYLa-41">
          <mxGeometry x="0.7529" relative="1" as="geometry">
            <mxPoint as="offset" />
          </mxGeometry>
        </mxCell>
        <mxCell id="BIRITO1jmdsO6rU4qYLa-44" value="Experiment file" style="swimlane;fontStyle=0;childLayout=stackLayout;horizontal=1;startSize=30;horizontalStack=0;resizeParent=1;resizeParentMax=0;resizeLast=0;collapsible=1;marginBottom=0;whiteSpace=wrap;html=1;" vertex="1" parent="1">
          <mxGeometry x="230" y="300" width="140" height="60" as="geometry" />
        </mxCell>
        <mxCell id="BIRITO1jmdsO6rU4qYLa-45" value="pipelines" style="text;strokeColor=none;fillColor=none;align=left;verticalAlign=middle;spacingLeft=4;spacingRight=4;overflow=hidden;points=[[0,0.5],[1,0.5]];portConstraint=eastwest;rotatable=0;whiteSpace=wrap;html=1;" vertex="1" parent="BIRITO1jmdsO6rU4qYLa-44">
          <mxGeometry y="30" width="140" height="30" as="geometry" />
        </mxCell>
        <mxCell id="BIRITO1jmdsO6rU4qYLa-46" style="edgeStyle=orthogonalEdgeStyle;rounded=0;orthogonalLoop=1;jettySize=auto;html=1;entryX=0.486;entryY=1;entryDx=0;entryDy=0;entryPerimeter=0;endArrow=diamondThin;endFill=1;" edge="1" parent="1" source="BIRITO1jmdsO6rU4qYLa-37" target="BIRITO1jmdsO6rU4qYLa-10">
          <mxGeometry relative="1" as="geometry">
            <Array as="points">
              <mxPoint x="118" y="730" />
            </Array>
          </mxGeometry>
        </mxCell>
        <mxCell id="BIRITO1jmdsO6rU4qYLa-47" value="n" style="edgeLabel;html=1;align=center;verticalAlign=middle;resizable=0;points=[];" connectable="0" vertex="1" parent="BIRITO1jmdsO6rU4qYLa-46">
          <mxGeometry x="-0.8272" y="2" relative="1" as="geometry">
            <mxPoint as="offset" />
          </mxGeometry>
        </mxCell>
        <mxCell id="BIRITO1jmdsO6rU4qYLa-48" value="1" style="edgeLabel;html=1;align=center;verticalAlign=middle;resizable=0;points=[];" connectable="0" vertex="1" parent="BIRITO1jmdsO6rU4qYLa-46">
          <mxGeometry x="0.8025" relative="1" as="geometry">
            <mxPoint as="offset" />
          </mxGeometry>
        </mxCell>
        <mxCell id="BIRITO1jmdsO6rU4qYLa-49" style="edgeStyle=orthogonalEdgeStyle;rounded=0;orthogonalLoop=1;jettySize=auto;html=1;entryX=0.493;entryY=0.933;entryDx=0;entryDy=0;entryPerimeter=0;endArrow=diamondThin;endFill=1;exitX=1;exitY=0.5;exitDx=0;exitDy=0;" edge="1" parent="1" source="BIRITO1jmdsO6rU4qYLa-37" target="BIRITO1jmdsO6rU4qYLa-15">
          <mxGeometry relative="1" as="geometry">
            <mxPoint x="545" y="750" as="sourcePoint" />
            <mxPoint x="433" y="700" as="targetPoint" />
            <Array as="points">
              <mxPoint x="440" y="730" />
              <mxPoint x="440" y="700" />
              <mxPoint x="439" y="700" />
            </Array>
          </mxGeometry>
        </mxCell>
        <mxCell id="BIRITO1jmdsO6rU4qYLa-50" value="n" style="edgeLabel;html=1;align=center;verticalAlign=middle;resizable=0;points=[];" connectable="0" vertex="1" parent="BIRITO1jmdsO6rU4qYLa-49">
          <mxGeometry x="-0.8462" y="1" relative="1" as="geometry">
            <mxPoint as="offset" />
          </mxGeometry>
        </mxCell>
        <mxCell id="BIRITO1jmdsO6rU4qYLa-51" value="1" style="edgeLabel;html=1;align=center;verticalAlign=middle;resizable=0;points=[];" connectable="0" vertex="1" parent="BIRITO1jmdsO6rU4qYLa-49">
          <mxGeometry x="0.7761" y="1" relative="1" as="geometry">
            <mxPoint as="offset" />
          </mxGeometry>
        </mxCell>
      </root>
    </mxGraphModel>
  </diagram>
</mxfile>
